<svg xmlns="http://www.w3.org/2000/svg" fill="none" viewBox="0.0 0.0 268.0 149.0" width="423.850354260814" height="235.93232610221094"><clipPath id="a"><path d="M0 0h268v149H0z"/></clipPath><clipPath id="b"><path d="M1 1h266v147.563H1z"/></clipPath><g clip-path="url(#a)"><g clip-path="url(#b)"><path fill="#fff" d="M244.864 1H23.173c-5.935 0-11.505 2.276-15.71 6.39C3.275 11.558 1 17.147 1 23.21v98.903c0 6.043 2.294 11.65 6.444 15.746 4.224 4.187 9.812 6.499 15.747 6.499h221.691c12.215 0 22.136-9.976 22.136-22.264V23.191c0-6.007-2.312-11.614-6.48-15.765C256.332 3.276 250.78 1 244.864 1z"/><path fill="#00278c" d="M259.21 23.191c0-3.84-1.457-7.536-4.187-10.249-2.731-2.712-6.372-4.15-10.158-4.15h-117.8l35.553 59.382 3.277.418 1.984 2.713v2.53l2.239.474 2.039 2.821v2.44l2.33.4 2.33 2.549v5.588s5.025 4.606 9.466 6.354c3.15 1.22 3.478 6.189 5.371 8.902 2.366 3.895 5.607 5.461 4.915 7.645-1.584 5.844-7.555 15.656-13.125 16.129h-22.009v9.43h83.393c7.937 0 14.345-6.481 14.345-14.472V23.191"/><path fill="#006cff" d="M51.807 127.228H41.139c-.091-26.596 8.993-41.323 19.77-44.254 1.474-.273.764-7.537-1.11-9.758 0 0-5.225.073-6.336-.072-1.365-.383-.418-1.876-.418-1.876l5.042-10.776-.692-2.95h-18.55l15.328-10.704c.71-28.253 29.691-30.455 47.167-18.768 10.377 6.863 11.178 20.48 10.377 29.891-.128.601-2.694.2-2.694.2s-1.766 10.322 2.839 10.322h20.389c8.319-.327 16.329 5.298 16.329 5.298l1.966-7.118L105.91 8.792H23.172c-3.842 0-7.5 1.456-10.268 4.168-2.712 2.713-4.132 6.408-4.132 10.25v98.903c0 3.877 1.402 7.518 4.132 10.212 2.767 2.749 6.426 4.26 10.268 4.26h34.114c-2.202-3.786-4.715-8.082-5.48-9.339"/><g fill="#fff"><path d="m179.129 31.365 9.247-6.7h-11.414l-3.531-10.867-3.532 10.868h-11.414l9.23 6.699-3.532 10.868 9.248-6.718 9.229 6.718zM199.462 59.8l9.248-6.718h-11.432l-3.514-10.85-3.531 10.85H178.8l9.248 6.718-3.532 10.85 9.248-6.7 9.23 6.7zM220.234 88.216l9.23-6.699H218.05l-3.532-10.868-3.532 10.868h-11.414l9.248 6.7-3.532 10.849 9.23-6.7 9.248 6.7zM239.73 116.633l9.248-6.699h-11.432l-3.514-10.868-3.531 10.868h-11.432l9.247 6.699-3.531 10.868 9.247-6.717 9.23 6.717zM264.524 144.413l-1.074 2.712-1.056-2.712h-1.202v4.132h.747l-.037-3.277 1.184 3.277h.6l1.165-3.277-.018 3.277h.892v-4.132zM257.516 145.105h1.183v3.459h.892v-3.459h1.184v-.692h-3.259z"/></g></g></g></svg>